<svg xmlns="http://www.w3.org/2000/svg" viewBox="0 0 100 125"><path d="M85.5 24.5c-.5-.5-1.1-.7-1.8-.7H31.3c-.6 0-1.2.2-1.6.6l-8.8 7.5c-.6.4-.9 1.1-.9 1.9v10H7.5c-1.4 0-2.5 1.1-2.5 2.5v7.5c0 1.4 1.1 2.5 2.5 2.5H20v10c0 .7.3 1.4.9 1.9l8.8 7.5c.5.4 1 .6 1.6.6h52.5c.7 0 1.3-.3 1.8-.7l8.8-8.8c.5-.5.7-1.1.7-1.8V35c0-.7-.3-1.3-.7-1.8l-8.9-8.7zM63.8 43.8v5h-30v-5h30zm-30-2.5v-3.8h30v3.8h-30zm30 10v6.3h-30v-6.3h30zm0 8.7v2.5h-30V60h30zm0-25h-30v-2.5h30V35zm-30 30h30v2.5h-30V65zm30-35h-30v-1.3h30V30zm-30 40h30v1.3h-30V70zm32.5-41.2h15v42.5h-15V28.8zM10 51.3v-2.5h12.5v2.5H10zm15 13.8V34.9l6.3-5.4v40.9L25 65.1zM90 64l-6.3 6.2V29.8L90 36v28z"/></svg>