<svg xmlns="http://www.w3.org/2000/svg" viewBox="0 0 100 125"><path d="M50 16.1c-18.7 0-33.9 15.2-33.9 33.9S31.3 83.9 50 83.9 83.9 68.7 83.9 50 68.7 16.1 50 16.1zm20.4 54.3C65.2 75.7 58 78.9 50 78.9s-15.2-3.2-20.4-8.5C24.4 65.2 21.1 58 21.1 50s3.2-15.2 8.5-20.4S42 21.1 50 21.1s15.2 3.2 20.4 8.5c5.2 5.2 8.5 12.4 8.5 20.4s-3.2 15.2-8.5 20.4z"/><path d="M60.6 26.2c-.3 0-.6.3-1.1.8L44.7 45.1c-.9 1.1-1.8 3.1-2.2 4.7 0 .2-.1.4-.1.5L39 72.2c-.2.9 0 1.4.4 1.4.3 0 .6-.3 1.1-.8l14-16.6c1.1-1.3 2.2-3.6 2.5-5.3l4.1-23.5c0-.7-.2-1.2-.5-1.2zM41.5 68.5l2.6-16.7c.4 1.7 1.5 3.3 3.3 4.1.8.4 1.6.5 2.4.5s1.6-.2 2.3-.5L41.5 68.5zm11.9-16.4c-.6 1.3-1.9 2.1-3.2 2.2h-.3c-.2 0-.4 0-.7-.1h-.1c-.3-.1-.5-.1-.8-.3-.5-.2-.9-.6-1.3-1-.2-.2-.3-.4-.4-.6-.1-.2-.2-.4-.3-.7-.3-.9-.3-1.9.2-2.8.9-1.9 3.2-2.8 5.1-1.9 1.8 1 2.7 3.3 1.8 5.2z"/></svg>