<svg xmlns="http://www.w3.org/2000/svg" viewBox="0 0 100 125"><path d="M45 26.5v9.2h16.9l.7 3.5.8 4h8.4v7.4h12.3v-6.8h4.5c.9 4.2 1.5 10 1.5 14s-.6 9.8-1.4 14h-4.5v-6.4H70.7v8.1H39.6l-6.4-6.4-1.5-1.5H18.5v-24h4.3l1.5-1.5 3.9-3.9.3-.3.1-.2h14v-9.2H45m12.9-5H29.5v5.2h8.2v4h-9.2c-1.6 0-2.9.8-3.8 1.9l-3.9 3.9h-2.6c-2.6 0-4.6 2.1-4.6 4.6v6.7h-2.5V33.6L5 37.1v12.3l2 2v12.3l4.1 2.4v-13h2.5V66c0 2.6 2.1 4.6 4.6 4.6h11.5l6.5 6.5.4.4c.8.6 1.8 1 2.9 1h31.4c2.6 0 4.6-2.1 4.6-4.6v-3.5H79v6.4h13.3c1.7-4.9 2.6-14 2.6-19s-.9-14.1-2.6-19H79.1v6.8h-2.3v-2.8c0-2.6-2.1-4.6-4.6-4.6h-4.6l-.8-3.8c-.5-2.2-2.3-3.7-4.5-3.7H50v-4h7.9v-5.2z"/></svg>