<svg xmlns="http://www.w3.org/2000/svg" viewBox="0 0 88 80.9"><path d="M69.5 29.5V12.6c0-1.1-.9-1.9-1.9-1.9H47.2c-1 0-1.9.9-1.9 1.9V26h-17c-.5 0-.9.2-1.2.4-.4.4-.7.9-.7 1.5v9.2l-2 .4c-.2 0-.4.1-.6.1L16 39l-.8.2 1.5-8.6c.2-1-.5-2-1.6-2.2h-.2c-1-.2-2 .5-2.2 1.6L8.9 51.2c-.2 1 .5 2 1.6 2.2h.2c1 .2 2-.5 2.2-1.6l1.5-8.5 3.6-.7c-.3.8-.5 1.8-.5 2.7 0 4.4 3.6 8 8 8h44.1c6.6 0 12-5.4 12-12-.1-6.4-5.4-11.8-12.1-11.8zm-16.9 7l6.6-1.2c-1.1 1.8-1.7 3.9-1.7 6.2 0 3.1 1.2 5.9 3.1 8H32.4c.7-1.2 1.1-2.6 1.1-4 0-2-.7-3.8-1.9-5.2l21-3.8zm-3.2-21.8h16.1v15.4l-8.4 1.5-5.9 1.1-1.8.3V14.7zM30.3 30.1h15.1v3.7l-15.1 2.8v-6.5zm-8.9 15.4c0-1.9 1.3-3.4 3-3.9h.1l.5-.1h.4c2.2 0 4 1.8 4 4 0 2.1-1.7 3.9-3.8 4h-.3c-2.1 0-3.9-1.8-3.9-4zm48 4c-4.4 0-8-3.6-8-8 0-3.4 2.2-6.4 5.2-7.5l1.4-.2c.2 0 .4-.1.6-.2h.9c4.4 0 8 3.6 8 8-.1 4.3-3.7 7.9-8.1 7.9z"/></svg>