<svg width="95" height="28" viewBox="0 0 95 28" xmlns="http://www.w3.org/2000/svg"><title>Group</title><g fill="#D42C2F" fill-rule="evenodd"><path d="M31.1 24.1c-.4-.1-.7-.3-1-.6-.3-.3-.5-.6-.7-.9-.2-.3-.2-.7-.2-1.1v-1.4h2.1v2.2h2.1v-1.9c0-.3-.1-.5-.3-.7-.2-.2-.5-.3-.8-.3-.4 0-.9-.1-1.2-.2-.4-.2-.7-.4-1-.6-.3-.3-.5-.5-.7-.9-.2-.3-.2-.7-.2-1.1v-1c0-.4.1-.7.2-1.1.2-.4.4-.7.7-.9.3-.3.6-.5 1-.6.4-.2.8-.2 1.2-.2.4 0 .9.1 1.3.2s.7.3 1 .6c.3.3.5.6.7.9.2.3.2.7.2 1.1v1h-2.1v-1.8h-2.1v1.8c0 .2.1.5.3.6.2.2.5.3.7.3.4 0 .9.1 1.2.2.4.2.7.4 1 .6.3.3.5.5.7.9.2.3.2.7.2 1.1v1c0 .4-.1.7-.2 1.1-.2.3-.4.6-.7.9-.3.3-.6.5-1 .6-.4.1-.8.2-1.3.2-.3.2-.7.1-1.1 0m13.3-9.4c-.2-.3-.4-.6-.7-.9-.3-.3-.6-.4-1-.6-.4-.1-.8-.2-1.2-.2h-3.2v13c0 .2.1.5.2.7.1.2.3.4.5.6.2.2.4.3.7.4.3.1.5.1.8.1v-3.7h1.1c.4 0 .8-.1 1.2-.2.4-.2.7-.4 1-.6.3-.3.5-.5.7-.9.2-.4.2-.7.2-1.1v-5.6c-.1-.3-.2-.7-.3-1zm-1.9 7.6h-2.1v-7.4h2.1v7.4zm11.3-7.6c-.2-.3-.4-.6-.7-.9-.3-.3-.6-.4-1-.6-.4-.1-.8-.2-1.2-.2h-1.1V9.3h-2.1v14.9h3.2c.4 0 .8-.1 1.2-.2.4-.2.7-.4 1-.6.3-.3.5-.5.7-.9.2-.3.3-.7.3-1.1v-5.6c-.1-.4-.2-.8-.3-1.1zm-1.9 7.6h-2.2v-7.4h2.2v7.4zm9.4-9.1c.4.1.7.3 1 .6.3.3.5.6.7.9.2.3.2.7.2 1.1v8.4h-2.1v-9.3H59v9.3h-2.1V13h3.2c.5 0 .9.1 1.2.2m7.9 5.4h3.2v-2.9c0-.4-.1-.8-.2-1.1-.2-.4-.4-.6-.7-.9-.3-.2-.6-.4-1-.6-.4-.1-.8-.2-1.2-.2-.4 0-.9.1-1.2.2-.4.1-.7.3-1 .6-.3.3-.5.6-.7.9-.2.4-.2.7-.2 1.1v5.8c0 .4.1.7.2 1.1.2.3.4.6.7.9.3.3.6.5 1 .6.4.1.8.2 1.2.2.4 0 .9-.1 1.2-.2.4-.1.7-.3 1-.6.3-.3.5-.5.7-.9.2-.4.2-.7.2-1.1v-1h-2.1v1.9h-2.1v-3.8h1zm-1.1-3.7h2.1v1.8h-2.1v-1.8zm11.2 9.2c-.4.1-.8.2-1.2.2-.4 0-.8-.1-1.2-.2-.4-.1-.7-.3-1-.6-.3-.3-.5-.5-.7-.9-.2-.3-.3-.7-.3-1.1V13h2.2v9.3h2.1V13h2.1v9.3h2.2V13h2.1v11.1h-3.2c-.8 0-1.5-.2-2.1-.7-.3.4-.6.6-1 .7m10.6 0c-.4-.1-.7-.3-1-.6-.3-.3-.5-.6-.7-.9-.2-.3-.2-.7-.2-1.1v-1.4h2.1v2.2h2.1v-1.9c0-.3-.1-.5-.3-.7-.2-.2-.5-.3-.8-.3-.4 0-.9-.1-1.2-.2-.4-.2-.7-.4-1-.6-.3-.3-.5-.5-.7-.9-.2-.3-.2-.7-.2-1.1v-1c0-.4.1-.7.2-1.1.2-.4.4-.7.7-.9.3-.3.6-.5 1-.6.4-.2.8-.2 1.2-.2.4 0 .9.1 1.3.2s.7.3 1 .6c.3.3.5.6.7.9.2.3.2.7.2 1.1v1h-2.1v-1.8h-2.1v1.8c0 .2.1.5.3.6.2.2.5.3.7.3.4 0 .8.1 1.2.2.4.2.7.4 1 .6.3.3.5.5.7.9.2.3.2.7.2 1.1v1c0 .4-.1.7-.2 1.1-.2.3-.4.6-.7.9-.3.3-.6.5-1 .6-.4.1-.8.2-1.3.2-.3.2-.7.1-1.1 0M22.5.3c-1.1 0-2 .9-2 2s.9 2 2 2 2-.9 2-2-.9-2-2-2zm0 3c-.5 0-1-.4-1-1 0-.5.4-1 1-1 .5 0 1 .4 1 1-.1.6-.5 1-1 1zM8.2 21.1l-4.4-4.4c.2-.3.3-.7.3-1 0-1.1-.9-2-2-2s-2 .9-2 2 .9 2 2 2h.4l4 4.1v2.6h1.8l-.1-3.3zm-6.1-4.6c-.5 0-1-.4-1-1 0-.5.4-1 1-1 .5 0 1 .4 1 1s-.5 1-1 1z"/><path d="M12 18L4 9.8c.1-.2.2-.5.2-.8 0-1.1-.9-2-2-2s-2 .9-2 2 .9 2 2 2c.2 0 .5 0 .7-.1l7.6 7.6v5.7h1.8L12 18zM2.1 9.9c-.5 0-1-.4-1-1 0-.5.4-1 1-1 .5 0 1 .4 1 1s-.5 1-1 1z"/><path d="M15.9 14.8L4.1 2.8c0-.2.1-.3.1-.5 0-1.1-.9-2-2-2s-2 .9-2 2 .9 2 2 2c.3 0 .7-.1 1-.2l11.1 11.2v8.9h1.8l-.2-9.4zM2.1 3.3c-.5 0-1-.4-1-1 0-.5.4-1 1-1 .5 0 1 .4 1 1s-.5 1-1 1z"/><path d="M19.6 12l-8.9-8.9c.1-.2.1-.5.1-.7 0-1.1-.9-2-2-2s-2 .9-2 2 .9 2 2 2c.3 0 .5-.1.8-.2l8.3 8.4v11.6h1.7V12zM8.9 3.3c-.5 0-1-.4-1-1 0-.5.4-1 1-1 .5 0 1 .4 1 1s-.5 1-1 1z"/><path d="M23.5 9.1l-6-6c.1-.2.1-.5.1-.7 0-1.1-.9-2-2-2s-2 .9-2 2 .9 2 2 2c.3 0 .5 0 .7-.1l5.4 5.4v14.6h1.7l.1-15.2zm-7-6.2l-.3.3c-.1.1-.3.1-.5.1-.5 0-1-.4-1-1 0-.5.4-1 1-1 .5 0 1 .4 1 1-.1.2-.1.4-.2.6zM2.1 20.2c-1.1 0-2 .9-2 2s.9 2 2 2 2-.9 2-2-.9-2-2-2zm0 3c-.5 0-1-.4-1-1 0-.5.4-1 1-1 .5 0 1 .4 1 1 0 .5-.5 1-1 1z"/></g></svg>