<?xml version="1.0" encoding="UTF-8" standalone="no"?>
<svg width="38px" height="38px" viewBox="0 0 38 38" version="1.1" xmlns="http://www.w3.org/2000/svg" xmlns:xlink="http://www.w3.org/1999/xlink">
    <!-- Generator: Sketch 3.8.2 (29753) - http://www.bohemiancoding.com/sketch -->
    <title>Cross</title>
    <desc>Created with Sketch.</desc>
    <defs></defs>
    <g id="Page-1" stroke="none" stroke-width="1" fill="none" fill-rule="evenodd">
        <g id="Cross" fill="#FFFFFF">
            <path d="M27.5,18.9 L37.5,8.9 C37.7,8.7 37.7,8.4 37.5,8.2 L29.9,0.6 C29.7,0.4 29.4,0.4 29.2,0.6 L19.2,10.6 L9.2,0.6 C9,0.4 8.7,0.4 8.5,0.6 L0.9,8.2 C0.7,8.4 0.7,8.7 0.9,8.9 L10.9,18.9 L0.9,28.9 C0.7,29.1 0.7,29.4 0.9,29.6 L8.5,37.2 C8.7,37.4 9,37.4 9.2,37.2 L19.2,27.2 L29.2,37.2 C29.4,37.4 29.7,37.4 29.9,37.2 L37.5,29.6 C37.7,29.4 37.7,29.1 37.5,28.9 L27.5,18.9 L27.5,18.9 Z" id="XMLID_4_"></path>
        </g>
    </g>
</svg>
