<svg width="19" height="12" viewBox="0 0 19 12" xmlns="http://www.w3.org/2000/svg"><title>eh</title><path d="M18.1 2.7h-1.8c.1-.1.1-.3.1-.5 0-.7-.6-1.3-1.3-1.3-.7 0-1.3.6-1.3 1.3 0 .2 0 .3.1.5H11c.1-.1.1-.3.1-.5 0-.7-.6-1.3-1.3-1.3-.7 0-1.3.6-1.3 1.3 0 .2 0 .3.1.5H5.7c.1-.1.1-.3.1-.5 0-.7-.6-1.3-1.3-1.3-.7 0-1.3.6-1.3 1.3 0 .5.3.9.7 1.1V7c-.3-.2-.7-.4-1.2-.4C1.3 6.6.1 8.1.1 10c0 .5.1.9.2 1.4h1.2c-.2-.3-.3-.8-.3-1.4 0-1 .6-2 1.4-2 .5 0 .9.5 1.1 1H5V3.3h4.1V7c-.3-.2-.7-.4-1.2-.4-1.4 0-2.6 1.5-2.6 3.4 0 .5.1.9.2 1.4h1.2c-.2-.3-.3-.8-.3-1.4 0-1 .6-2 1.4-2 .5 0 .9.5 1.1 1h1.3V3.3h4V7c-.3-.2-.7-.4-1.2-.4-1.4 0-2.6 1.5-2.6 3.4 0 .5.1.9.2 1.4h1.2c-.2-.3-.3-.8-.3-1.4 0-1 .6-2 1.4-2 .5 0 .9.5 1.1 1h1.3V3.3H18c0-.2.1-.4.1-.6z" fill-rule="evenodd"/></svg>