<svg xmlns="http://www.w3.org/2000/svg" viewBox="0 0 100 125"><path d="M76.8 20.7c-1.7-1.7-4.4-1.7-6.1 0-1.7 1.7-1.7 4.4 0 6.1l5.9 5.9c-3.6 1.1-6.2 4.5-6.2 8.5 0 4.9 4 8.8 8.8 8.8 1.5 0 3-.4 4.2-1.1V83c0 4.1-3.3 7.4-7.4 7.4s-7.4-3.3-7.4-7.4V59.7c0-6.6-5.4-12-12-12H54V17c0-6.6-5.5-12-12-12H17C10.4 5 5 10.5 5 17v78h49V52.3h2.6c4.1 0 7.4 3.3 7.4 7.4V83c0 6.6 5.4 12 12 12s12-5.4 12-12V31.9L76.8 20.7zM48 89H11V17.1c0-3.1 2.9-6 6-6h25c3.1 0 6 2.9 6 6V89zm31.2-43.9c-2.2 0-4-1.8-4-4s1.8-4 4-4 4 1.8 4 4c0 2.3-1.8 4-4 4z"/><path d="M23.5 58.6C27 62 32.6 62 36 58.6c3.5-3.5 3.5-9.1 0-12.5l-6.3-7.2-6.2 7.2c-3.5 3.4-3.5 9 0 12.5z"/></svg>