<svg fill="#FFF" xmlns="http://www.w3.org/2000/svg" viewBox="0 0 512 640"><path d="M320 0c-5.9 0-10.7 4.8-10.7 10.7v56.5L288 77.8V32c0-5.9-4.8-10.7-10.7-10.7s-10.7 4.8-10.7 10.7v56.5l-2.3 1.1c-3.1 1.6-6 3.9-8.7 6.7-2.5-2.6-5.3-4.7-8.2-6.2l-2.3-1.1V32c0-5.9-4.8-10.7-10.7-10.7S224 26.1 224 32v46.3l-21.3-10.7v-57C202.7 4.8 197.9 0 192 0s-10.7 4.8-10.7 10.7v299.7c0 11.7 8.6 25.6 19.1 30.9l44.9 22.5V512h21.3V363.1l44.9-22.5c10.5-5.3 19.1-19.1 19.1-30.9v-299C330.7 4.8 325.9 0 320 0zm-74.7 121v50.8l-35.4-17.7c-3.3-1.6-7.3-8.1-7.3-11.8V91.5l35.4 17.7c3.3 1.6 7.3 8.1 7.3 11.8zm0 74.7v58.8l-35.4-17.7c-3.3-1.6-7.3-8.1-7.3-11.8v-50.6l42.7 21.3zm-42.6 114.6V257l42.7 21.3v61.5L210 322.1c-3.3-1.6-7.3-8.1-7.3-11.8zm106.6-.5c0 3.7-4 10.2-7.3 11.8l-35.4 17.7v-61.5l42.7-21.3v53.3zm0-85.3c0 3.7-4 10.2-7.3 11.8L266.6 254v-58.8l42.7-21.3v50.6zm0-82.7c0 3.7-4 10.2-7.3 11.8l-35.4 17.7v-50.8c0-3.7 4-10.2 7.3-11.8L309.3 91v50.8zM448 128c-5.9 0-10.7 4.8-10.7 10.7v24.4l-21.3 7.1V160c0-5.9-4.8-10.7-10.7-10.7s-10.7 4.8-10.7 10.7v10.2l-21.3-7.1V139c0-5.9-4.8-10.7-10.7-10.7S352 133.2 352 139v207.6c0 11.7 9.1 24.4 20.3 28.1l22.4 7.5V512H416V382.2l22.4-7.5c11.1-3.7 20.2-16.3 20.2-28.1v-208c.1-5.8-4.7-10.6-10.6-10.6zm-53.3 70.7v34.4l-15.7-5.2c-2.4-.8-5.6-5.3-5.6-7.8v-34.4l15.7 5.2c2.3.7 5.6 5.3 5.6 7.8zm0 97l-15.7-5.2c-2.4-.8-5.6-5.3-5.6-7.8v-34.2l21.3 7.1v40.1zM379 354.5c-2.4-.8-5.6-5.3-5.6-7.8v-35.6l21.3 7.1v41.5l-15.7-5.2zm58.3-7.8c0 2.5-3.3 7-5.7 7.8l-15.7 5.2v-41.5l21.3-7.1v35.6zm0-64c0 2.5-3.3 7-5.7 7.8l-15.7 5.2v-40.2l21.3-7.1v34.3zm0-62.7c0 2.5-3.3 7-5.7 7.8l-15.7 5.2v-34.4c0-2.5 3.3-7 5.7-7.8l15.7-5.2V220zm-288-92c-5.9 0-10.7 4.8-10.7 10.7v24.4l-21.3 7.1V160c0-5.9-4.8-10.7-10.7-10.7S96 154.1 96 160v10.2l-21.3-7.1V139c0-5.9-4.8-10.7-10.7-10.7s-10.7 4.8-10.7 10.7v207.6c0 11.7 9.1 24.4 20.2 28.1l22.4 7.5V512h21.3V382.2l22.4-7.5c11.1-3.7 20.2-16.3 20.2-28.1v-208c.2-5.8-4.6-10.6-10.5-10.6zM96 198.7v34.4l-15.7-5.2c-2.4-.8-5.7-5.3-5.7-7.8v-34.4l15.7 5.2c2.4.7 5.7 5.3 5.7 7.8zm0 97l-15.7-5.2c-2.4-.8-5.7-5.3-5.7-7.8v-34.2l21.3 7.1c.1 0 .1 40.1.1 40.1zm-15.7 58.8c-2.4-.8-5.7-5.3-5.7-7.8v-35.6l21.3 7.1v41.5l-15.6-5.2zm58.4-7.8c0 2.5-3.3 7-5.7 7.8l-15.7 5.2v-41.5l21.3-7.1v35.6zm0-64c0 2.5-3.3 7-5.7 7.8l-15.7 5.2v-40.2l21.3-7.1v34.3zm0-62.7c0 2.5-3.3 7-5.7 7.8l-15.7 5.2v-34.4c0-2.5 3.3-7 5.6-7.8l15.7-5.2.1 34.4z"/></svg>