<svg xmlns="http://www.w3.org/2000/svg" viewBox="0 0 100 125"><path d="M90.3 60.6c.8-.7 1-1.8.6-2.8l-2.2-5.2c-.4-1-1.4-1.6-2.4-1.5l-5.3.2-1.6-1.6.3-5.4c.1-1.1-.6-2-1.5-2.4L73 39.7c-1-.4-2.1-.2-2.8.6l-3.6 4h-2.2l-3.6-3.9c.8-.4 1.3-1.3 1.3-2.2v-5.7c0-1.1-.7-2-1.7-2.4l-5.1-1.8-.9-2.1 2.3-4.9c.5-1 .3-2.1-.5-2.8l-4-4c-.7-.7-1.9-.9-2.8-.5l-4.9 2.3-2.1-.9-1.8-5.1c-.4-1-1.3-1.7-2.4-1.7h-5.7c-1.1 0-2 .7-2.4 1.7l-1.8 5.1-2.1.9-4.9-2.3c-1-.5-2.1-.3-2.8.5l-4 4c-.7.7-.9 1.9-.5 2.8l2.3 4.9-.9 2.1-5.1 1.8c-1 .4-1.7 1.3-1.7 2.4v5.7c0 1.1.7 2 1.7 2.4l5.1 1.8.9 2.1-2.3 4.9c-.5 1-.3 2.1.5 2.8l4 4c.7.7 1.9.9 2.8.5l4.9-2.3 2.1.9 1.8 5.1c.4 1 1.3 1.7 2.4 1.7h5.7c.9 0 1.8-.5 2.2-1.3l3.9 3.6v2.2l-4 3.6c-.8.7-1 1.8-.6 2.8l2.2 5.2c.4 1 1.4 1.6 2.4 1.5l5.4-.3 1.6 1.6-.3 5.3c-.1 1.1.6 2 1.5 2.4l5.2 2.2c1 .4 2.1.2 2.8-.6l3.6-4h2.2l3.6 4c.5.5 1.2.8 1.9.8.3 0 .6-.1 1-.2l5.2-2.2c1-.4 1.6-1.4 1.5-2.4l-.1-5.3 1.6-1.6 5.4.3c1.1.1 2-.6 2.4-1.5L91 73c.4-1 .2-2.1-.6-2.8l-4-3.6v-2.2l3.9-3.8zM43.6 49.3L39.5 51c-.7.3-1.2.8-1.4 1.5L36.5 57h-2.1l-1.6-4.5c-.2-.7-.7-1.2-1.4-1.5l-4.1-1.7c-.7-.3-1.4-.3-2 .1l-4.3 2-1.5-1.5 2-4.3c.3-.6.3-1.4.1-2l-1.7-4.1c-.3-.7-.8-1.2-1.5-1.4l-4.5-1.6v-2.1l4.5-1.6c.7-.2 1.2-.7 1.5-1.4l1.7-4.1c.3-.7.3-1.4-.1-2l-2-4.3 1.5-1.5 4.3 2c.6.3 1.4.3 2 .1l4.1-1.7c.7-.3 1.2-.8 1.4-1.5l1.6-4.5h2.1l1.6 4.5c.2.7.7 1.2 1.4 1.5l4.1 1.7c.7.3 1.4.3 2-.1l4.3-2 1.5 1.5-2 4.3c-.3.6-.3 1.4-.1 2l1.7 4.1c.3.7.8 1.2 1.5 1.4l4.5 1.6v2.1l-4.5 1.6c-.7.2-1.2.7-1.5 1.4l-1.7 4.1c-.3.7-.3 1.4.1 2l1.9 4.1-1.6 1.6-4.1-1.9c-.6-.3-1.4-.4-2-.1zm38.5 20.1l3.5 3.2-.8 2-4.7-.2c-.7 0-1.4.2-1.9.7l-3.1 3.1c-.5.5-.8 1.2-.7 1.9l.2 4.7-2 .8-3.2-3.5c-.5-.5-1.1-.8-1.9-.8H63c-.7 0-1.4.3-1.9.8l-3.2 3.5-2-.8.2-4.7c0-.7-.2-1.4-.7-1.9l-3.1-3.1c-.5-.5-1.2-.8-1.9-.7l-4.7.2-.8-2 3.5-3.2c.5-.5.8-1.1.8-1.9V63c0-.7-.3-1.4-.8-1.9l-3.4-3 .8-2 4.7.2c.7 0 1.4-.2 1.9-.7l3.1-3.1c.5-.5.8-1.2.7-1.9l-.2-4.7 2-.8 3.2 3.5c.5.5 1.1.8 1.9.8h4.5c.7 0 1.4-.3 1.9-.8l3.2-3.5 2 .8-.2 4.7c0 .7.2 1.4.7 1.9l3.1 3.1c.5.5 1.2.8 1.9.7l4.7-.2.8 2-3.5 3.2c-.5.5-.8 1.1-.8 1.9v4.5c-.1.6.2 1.2.7 1.7z"/><path d="M35.7 27c-4.8 0-8.8 3.9-8.8 8.8s3.9 8.8 8.8 8.8 8.8-3.9 8.8-8.8-4-8.8-8.8-8.8zm0 15c-3.4 0-6.3-2.8-6.3-6.3s2.8-6.3 6.3-6.3 6.3 2.8 6.3 6.3-2.8 6.3-6.3 6.3zm29.9 15.1c-4.8 0-8.8 3.9-8.8 8.8s3.9 8.8 8.8 8.8 8.8-3.9 8.8-8.8-4-8.8-8.8-8.8zm0 15c-3.4 0-6.3-2.8-6.3-6.3s2.8-6.3 6.3-6.3 6.3 2.8 6.3 6.3-2.9 6.3-6.3 6.3z"/></svg>