<svg fill="#FFF" xmlns="http://www.w3.org/2000/svg" viewBox="0 0 48 60"><path d="M9 26.038c-5 0-9 4-9 9s4 9 9 9 9-4 9-9-4-9-9-9zm0 2c3.9 0 7 3.1 7 7s-3.1 7-7 7-7-3.1-7-7 3.1-7 7-7zm33 4c-3.3 0-6 2.7-6 6s2.7 6 6 6 6-2.7 6-6-2.7-6-6-6zm0 2c2.2 0 4 1.8 4 4s-1.8 4-4 4-4-1.8-4-4 1.8-4 4-4z"/><path d="M4 23.038c-.3 0-.5.1-.7.3l-3 3c-.4.4-.4 1 0 1.4s1 .4 1.4 0l2.7-2.7h10.9l5.7 12.4c.2.4.5.6.9.6h11c.4 0 .7-.2.9-.5l3.7-6.5h7l1.7 1.7c.4.4 1 .4 1.4 0 .4-.4.4-1 0-1.4l-2-2c-.2-.2-.4-.3-.7-.3h-8c-.4 0-.7.2-.9.5l-3.7 6.5h-9.8l-5.7-12.4c-.2-.4-.5-.6-.9-.6H4z"/><path d="M26 21.038c-.6 0-1 .4-1 1v5h-7c-.6 0-1 .4-1 1s.4 1 1 1h8c.6 0 1-.4 1-1v-5h15v6c0 .6.4 1 1 1s1-.4 1-1v-7c0-.6-.4-1-1-1H26z"/><path d="M6 4.038c-.5 0-.9.4-1 .9l-2 19c-.1.5.3 1.1.9 1.1.5.1 1.1-.3 1.1-.9v-.1l1.9-18.1h13.3l4.8 16.3c.1.5.7.9 1.2.7.5-.1.9-.7.7-1.2v-.1l-5-17c-.1-.4-.5-.7-1-.7l-14.9.1zm29 1c-.6 0-1 .4-1 1s.4 1 1 1h2v14c0 .6.4 1 1 1s1-.4 1-1v-15c0-.6-.4-1-1-1h-3z"/><path d="M16 5.038c-.6 0-1 .5-1 1v18c0 .6.4 1 1 1s1-.4 1-1v-18c0-.6-.4-1-1-1zm22 20c-.6 0-1 .4-1 1s.4 1 1 1h5c.6 0 1-.4 1-1s-.4-1-1-1h-5z"/></svg>