<svg width="95" height="28" viewBox="0 0 95 28" xmlns="http://www.w3.org/2000/svg"><title>Group</title><g id="Page-1" fill="none" fill-rule="evenodd"><g id="copy" fill="#D42C2F"><g id="Group"><g id="Shape"><path d="M2.1,15.1 C1.7,15 1.4,14.8 1.1,14.5 C0.8,14.2 0.6,13.9 0.4,13.6 C0.2,13.3 0.2,12.9 0.2,12.5 L0.2,11.1 L2.3,11.1 L2.3,13.3 L4.4,13.3 L4.4,11.4 C4.4,11.1 4.3,10.9 4.1,10.7 C3.9,10.5 3.6,10.4 3.3,10.4 C2.9,10.4 2.4,10.3 2.1,10.2 C1.7,10 1.4,9.8 1.1,9.6 C0.8,9.3 0.6,9.1 0.4,8.7 C0.2,8.4 0.2,8 0.2,7.6 L0.2,6.6 C0.2,6.2 0.3,5.9 0.4,5.5 C0.6,5.1 0.8,4.8 1.1,4.6 C1.4,4.3 1.7,4.1 2.1,4 C2.5,3.8 2.9,3.8 3.3,3.8 C3.7,3.8 4.2,3.9 4.6,4 C5,4.1 5.3,4.3 5.6,4.6 C5.9,4.9 6.1,5.2 6.3,5.5 C6.5,5.8 6.5,6.2 6.5,6.6 L6.5,7.6 L4.4,7.6 L4.4,5.8 L2.3,5.8 L2.3,7.6 C2.3,7.8 2.4,8.1 2.6,8.2 C2.8,8.4 3.1,8.5 3.3,8.5 C3.7,8.5 4.2,8.6 4.5,8.7 C4.9,8.9 5.2,9.1 5.5,9.3 C5.8,9.6 6,9.8 6.2,10.2 C6.4,10.5 6.4,10.9 6.4,11.3 L6.4,12.3 C6.4,12.7 6.3,13 6.2,13.4 C6,13.7 5.8,14 5.5,14.3 C5.2,14.6 4.9,14.8 4.5,14.9 C4.1,15 3.7,15.1 3.2,15.1 C2.9,15.3 2.5,15.2 2.1,15.1" transform="translate(29 9)"/><path d="M15.4,5.7 C15.2,5.4 15,5.1 14.7,4.8 C14.4,4.5 14.1,4.4 13.7,4.2 C13.3,4.1 12.9,4 12.5,4 L9.3,4 L9.3,17 C9.3,17.2 9.4,17.5 9.5,17.7 C9.6,17.9 9.8,18.1 10,18.3 C10.2,18.5 10.4,18.6 10.7,18.7 C11,18.8 11.2,18.8 11.5,18.8 L11.5,15.1 L12.6,15.1 C13,15.1 13.4,15 13.8,14.9 C14.2,14.7 14.5,14.5 14.8,14.3 C15.1,14 15.3,13.8 15.5,13.4 C15.7,13 15.7,12.7 15.7,12.3 L15.7,6.7 C15.6,6.4 15.5,6 15.4,5.7 L15.4,5.7 Z M13.5,13.3 L12.5,13.3 L11.4,13.3 L11.4,5.9 L12.5,5.9 L13.5,5.9 L13.5,13.3 L13.5,13.3 Z" transform="translate(29 9)"/><path d="M24.8,5.7 C24.6,5.4 24.4,5.1 24.1,4.8 C23.8,4.5 23.5,4.4 23.1,4.2 C22.7,4.1 22.3,4 21.9,4 L21.9,4 L20.8,4 L20.8,0.3 L18.7,0.3 L18.7,15.2 L21.9,15.2 L21.9,15.2 C22.3,15.2 22.7,15.1 23.1,15 C23.5,14.8 23.8,14.6 24.1,14.4 C24.4,14.1 24.6,13.9 24.8,13.5 C25,13.2 25.1,12.8 25.1,12.4 L25.1,6.8 C25,6.4 24.9,6 24.8,5.7 L24.8,5.7 Z M22.9,13.3 L21.8,13.3 L20.7,13.3 L20.7,5.9 L21.8,5.9 L22.9,5.9 L22.9,13.3 L22.9,13.3 Z" transform="translate(29 9)"/><path d="M32.3,4.2 C32.7,4.3 33,4.5 33.3,4.8 C33.6,5.1 33.8,5.4 34,5.7 C34.2,6 34.2,6.4 34.2,6.8 L34.2,15.2 L32.1,15.2 L32.1,5.9 L30,5.9 L30,15.2 L27.9,15.2 L27.9,4 L31.1,4 C31.6,4 32,4.1 32.3,4.2" transform="translate(29 9)"/><path d="M40.2,9.6 L43.4,9.6 L43.4,6.7 C43.4,6.3 43.3,5.9 43.2,5.6 C43,5.2 42.8,5 42.5,4.7 C42.2,4.5 41.9,4.3 41.5,4.1 C41.1,4 40.7,3.9 40.3,3.9 L40.3,3.9 C39.9,3.9 39.4,4 39.1,4.1 C38.7,4.2 38.4,4.4 38.1,4.7 C37.8,5 37.6,5.3 37.4,5.6 C37.2,6 37.2,6.3 37.2,6.7 L37.2,12.5 C37.2,12.9 37.3,13.2 37.4,13.6 C37.6,13.9 37.8,14.2 38.1,14.5 C38.4,14.8 38.7,15 39.1,15.1 C39.5,15.2 39.9,15.3 40.3,15.3 L40.3,15.3 C40.7,15.3 41.2,15.2 41.5,15.1 C41.9,15 42.2,14.8 42.5,14.5 C42.8,14.2 43,14 43.2,13.6 C43.4,13.2 43.4,12.9 43.4,12.5 L43.4,11.5 L41.3,11.5 L41.3,13.4 L40.2,13.4 L39.2,13.4 L39.2,9.6 L40.2,9.6 L40.2,9.6 Z M39.1,5.9 L40.1,5.9 L41.2,5.9 L41.2,7.7 L40.1,7.7 L39.1,7.7 L39.1,5.9 L39.1,5.9 Z" transform="translate(29 9)"/><path d="M50.3,15.1 C49.9,15.2 49.5,15.3 49.1,15.3 C48.7,15.3 48.3,15.2 47.9,15.1 C47.5,15 47.2,14.8 46.9,14.5 C46.6,14.2 46.4,14 46.2,13.6 C46,13.3 45.9,12.9 45.9,12.5 L45.9,4 L48.1,4 L48.1,13.3 L50.2,13.3 L50.2,4 L52.3,4 L52.3,13.3 L54.5,13.3 L54.5,4 L56.6,4 L56.6,15.1 L53.4,15.1 C52.6,15.1 51.9,14.9 51.3,14.4 C51,14.8 50.7,15 50.3,15.1" transform="translate(29 9)"/><path d="M60.9,15.1 C60.5,15 60.2,14.8 59.9,14.5 C59.6,14.2 59.4,13.9 59.2,13.6 C59,13.3 59,12.9 59,12.5 L59,11.1 L61.1,11.1 L61.1,13.3 L63.2,13.3 L63.2,11.4 C63.2,11.1 63.1,10.9 62.9,10.7 C62.7,10.5 62.4,10.4 62.1,10.4 C61.7,10.4 61.2,10.3 60.9,10.2 C60.5,10 60.2,9.8 59.9,9.6 C59.6,9.3 59.4,9.1 59.2,8.7 C59,8.4 59,8 59,7.6 L59,6.6 C59,6.2 59.1,5.9 59.2,5.5 C59.4,5.1 59.6,4.8 59.9,4.6 C60.2,4.3 60.5,4.1 60.9,4 C61.3,3.8 61.7,3.8 62.1,3.8 C62.5,3.8 63,3.9 63.4,4 C63.8,4.1 64.1,4.3 64.4,4.6 C64.7,4.9 64.9,5.2 65.1,5.5 C65.3,5.8 65.3,6.2 65.3,6.6 L65.3,7.6 L63.2,7.6 L63.2,5.8 L61.1,5.8 L61.1,7.6 C61.1,7.8 61.2,8.1 61.4,8.2 C61.6,8.4 61.9,8.5 62.1,8.5 C62.5,8.5 62.9,8.6 63.3,8.7 C63.7,8.9 64,9.1 64.3,9.3 C64.6,9.6 64.8,9.8 65,10.2 C65.2,10.5 65.2,10.9 65.2,11.3 L65.2,12.3 C65.2,12.7 65.1,13 65,13.4 C64.8,13.7 64.6,14 64.3,14.3 C64,14.6 63.7,14.8 63.3,14.9 C62.9,15 62.5,15.1 62,15.1 C61.7,15.3 61.3,15.2 60.9,15.1" transform="translate(29 9)"/></g><g id="Shape"><path d="M22.5,0.3 C21.4,0.3 20.5,1.2 20.5,2.3 C20.5,3.4 21.4,4.3 22.5,4.3 C23.6,4.3 24.5,3.4 24.5,2.3 C24.5,1.2 23.6,0.3 22.5,0.3 L22.5,0.3 Z M22.5,3.3 C22,3.3 21.5,2.9 21.5,2.3 C21.5,1.8 21.9,1.3 22.5,1.3 C23,1.3 23.5,1.7 23.5,2.3 C23.4,2.9 23,3.3 22.5,3.3 L22.5,3.3 Z"/><path d="M8.2,21.1 L8.2,21.1 L3.8,16.7 C4,16.4 4.1,16 4.1,15.7 C4.1,14.6 3.2,13.7 2.1,13.7 C1,13.7 0.1,14.6 0.1,15.7 C0.1,16.8 1,17.7 2.1,17.7 L2.5,17.7 L6.5,21.8 L6.5,24.4 L8.3,24.4 L8.2,21.1 L8.2,21.1 L8.2,21.1 Z M2.1,16.5 C1.6,16.5 1.1,16.1 1.1,15.5 C1.1,15 1.5,14.5 2.1,14.5 C2.6,14.5 3.1,14.9 3.1,15.5 C3.1,16.1 2.6,16.5 2.1,16.5 L2.1,16.5 Z"/><path d="M12,18 L12,18 L4,9.8 C4.1,9.6 4.2,9.3 4.2,9 C4.2,7.9 3.3,7 2.2,7 C1.1,7 0.2,7.9 0.2,9 C0.2,10.1 1.1,11 2.2,11 C2.4,11 2.7,11 2.9,10.9 L10.5,18.5 L10.5,24.2 L12.3,24.2 L12,18 L12,18 L12,18 Z M2.1,9.9 C1.6,9.9 1.1,9.5 1.1,8.9 C1.1,8.4 1.5,7.9 2.1,7.9 C2.6,7.9 3.1,8.3 3.1,8.9 C3.1,9.5 2.6,9.9 2.1,9.9 L2.1,9.9 Z"/><path d="M15.9,14.8 L4.1,2.8 C4.1,2.6 4.2,2.5 4.2,2.3 C4.2,1.2 3.3,0.3 2.2,0.3 C1.1,0.3 0.2,1.2 0.2,2.3 C0.2,3.4 1.1,4.3 2.2,4.3 C2.5,4.3 2.9,4.2 3.2,4.1 L14.3,15.3 L14.3,24.2 L16.1,24.2 L15.9,14.8 L15.9,14.8 L15.9,14.8 Z M2.1,3.3 C1.6,3.3 1.1,2.9 1.1,2.3 C1.1,1.8 1.5,1.3 2.1,1.3 C2.6,1.3 3.1,1.7 3.1,2.3 C3.1,2.9 2.6,3.3 2.1,3.3 L2.1,3.3 Z"/><path d="M19.6,12 L10.7,3.1 C10.8,2.9 10.8,2.6 10.8,2.4 C10.8,1.3 9.9,0.4 8.8,0.4 C7.7,0.4 6.8,1.3 6.8,2.4 C6.8,3.5 7.7,4.4 8.8,4.4 C9.1,4.4 9.3,4.3 9.6,4.2 L17.9,12.6 L17.9,24.2 L19.6,24.2 L19.6,12 L19.6,12 L19.6,12 Z M8.9,3.3 C8.4,3.3 7.9,2.9 7.9,2.3 C7.9,1.8 8.3,1.3 8.9,1.3 C9.4,1.3 9.9,1.7 9.9,2.3 C9.9,2.9 9.4,3.3 8.9,3.3 L8.9,3.3 Z"/><path d="M23.5,9.1 L17.5,3.1 C17.6,2.9 17.6,2.6 17.6,2.4 C17.6,1.3 16.7,0.4 15.6,0.4 C14.5,0.4 13.6,1.3 13.6,2.4 C13.6,3.5 14.5,4.4 15.6,4.4 C15.9,4.4 16.1,4.4 16.3,4.3 L21.7,9.7 L21.7,24.3 L23.4,24.3 L23.5,9.1 L23.5,9.1 L23.5,9.1 L23.5,9.1 Z M16.5,2.9 L16.2,3.2 C16.1,3.3 15.9,3.3 15.7,3.3 C15.2,3.3 14.7,2.9 14.7,2.3 C14.7,1.8 15.1,1.3 15.7,1.3 C16.2,1.3 16.7,1.7 16.7,2.3 C16.6,2.5 16.6,2.7 16.5,2.9 L16.5,2.9 Z"/><path d="M2.1,20.2 C1,20.2 0.1,21.1 0.1,22.2 C0.1,23.3 1,24.2 2.1,24.2 C3.2,24.2 4.1,23.3 4.1,22.2 C4.1,21.1 3.2,20.2 2.1,20.2 L2.1,20.2 Z M2.1,23.2 C1.6,23.2 1.1,22.8 1.1,22.2 C1.1,21.7 1.5,21.2 2.1,21.2 C2.6,21.2 3.1,21.6 3.1,22.2 C3.1,22.7 2.6,23.2 2.1,23.2 L2.1,23.2 Z"/></g></g></g></g></svg>