<svg width="19" height="12" viewBox="0 0 19 12" xmlns="http://www.w3.org/2000/svg"><title>eh</title><g id="Page-1" fill="none" fill-rule="evenodd"><g id="eh" fill="#000"><g id="Page-1"><g id="eh"><path d="M18.1,2.7 L16.3,2.7 C16.4,2.6 16.4,2.4 16.4,2.2 C16.4,1.5 15.8,0.9 15.1,0.9 C14.4,0.9 13.8,1.5 13.8,2.2 C13.8,2.4 13.8,2.5 13.9,2.7 L11,2.7 C11.1,2.6 11.1,2.4 11.1,2.2 C11.1,1.5 10.5,0.9 9.8,0.9 C9.1,0.9 8.5,1.5 8.5,2.2 C8.5,2.4 8.5,2.5 8.6,2.7 L5.7,2.7 C5.8,2.6 5.8,2.4 5.8,2.2 C5.8,1.5 5.2,0.9 4.5,0.9 C3.8,0.9 3.2,1.5 3.2,2.2 C3.2,2.7 3.5,3.1 3.9,3.3 L3.9,7 C3.6,6.8 3.2,6.6 2.7,6.6 C1.3,6.6 0.1,8.1 0.1,10 C0.1,10.5 0.2,10.9 0.3,11.4 L1.5,11.4 C1.3,11.1 1.2,10.6 1.2,10 C1.2,9 1.8,8 2.6,8 C3.1,8 3.5,8.5 3.7,9 L5,9 L5,3.3 L5,3.3 L9.1,3.3 L9.1,3.3 L9.1,7 C8.8,6.8 8.4,6.6 7.9,6.6 C6.5,6.6 5.3,8.1 5.3,10 C5.3,10.5 5.4,10.9 5.5,11.4 L6.7,11.4 C6.5,11.1 6.4,10.6 6.4,10 C6.4,9 7,8 7.8,8 C8.3,8 8.7,8.5 8.9,9 L10.2,9 L10.2,3.3 L10.2,3.3 L14.2,3.3 L14.2,3.3 L14.2,7 C13.9,6.8 13.5,6.6 13,6.6 C11.6,6.6 10.4,8.1 10.4,10 C10.4,10.5 10.5,10.9 10.6,11.4 L11.8,11.4 C11.6,11.1 11.5,10.6 11.5,10 C11.5,9 12.1,8 12.9,8 C13.4,8 13.8,8.5 14,9 L15.3,9 L15.3,3.3 L15.3,3.3 L18,3.3 C18,3.1 18.1,2.9 18.1,2.7 L18.1,2.7 L18.1,2.7 Z" id="Shape"/></g></g></g></g></svg>