<svg id="Слой_1" xmlns="http://www.w3.org/2000/svg" viewBox="0 0 100 125"><path d="M85.5,24.5c-0.5-0.5-1.1-0.7-1.8-0.7H31.3c-0.6,0-1.2,0.2-1.6,0.6l-8.8,7.5C20.3,32.3,20,33,20,33.8v10H7.5 c-1.4,0-2.5,1.1-2.5,2.5v7.5c0,1.4,1.1,2.5,2.5,2.5H20v10c0,0.7,0.3,1.4,0.9,1.9l8.8,7.5c0.5,0.4,1,0.6,1.6,0.6h52.5 c0.7,0,1.3-0.3,1.8-0.7l8.8-8.8c0.5-0.5,0.7-1.1,0.7-1.8V35c0-0.7-0.3-1.3-0.7-1.8L85.5,24.5z M63.8,43.8v5h-30v-5H63.8z M33.8,41.3 v-3.8h30v3.8H33.8z M63.8,51.3v6.3h-30v-6.3H63.8z M63.8,60v2.5h-30V60H63.8z M63.8,35h-30v-2.5h30V35z M33.8,65h30v2.5h-30V65z M63.8,30h-30v-1.3h30V30z M33.8,70h30v1.3h-30V70z M66.3,28.8h15v42.5h-15V28.8z M10,51.3v-2.5h12.5v2.5H10z M25,65.1V53.8v-7.5 c0,0,0,0,0,0V34.9l6.3-5.4v40.9L25,65.1z M90,64l-6.3,6.2V29.8L90,36V64z"/></svg>