<svg id="Слой_1" xmlns="http://www.w3.org/2000/svg" viewBox="0 0 100 125"><path d="M50,16.1c-18.7,0-33.9,15.2-33.9,33.9c0,18.7,15.2,33.9,33.9,33.9c18.7,0,33.9-15.2,33.9-33.9C83.9,31.3,68.7,16.1,50,16.1 z M70.4,70.4C65.2,75.7,58,78.9,50,78.9s-15.2-3.2-20.4-8.5C24.4,65.2,21.1,58,21.1,50s3.2-15.2,8.5-20.4S42,21.1,50,21.1 s15.2,3.2,20.4,8.5c5.2,5.2,8.5,12.4,8.5,20.4S75.7,65.2,70.4,70.4z"/><path d="M60.6,26.2c-0.3,0-0.6,0.3-1.1,0.8L44.7,45.1c-0.9,1.1-1.8,3.1-2.2,4.7l0,0l0,0c0,0.2-0.1,0.4-0.1,0.5l-3.4,21.9 c-0.2,0.9,0,1.4,0.4,1.4c0.3,0,0.6-0.3,1.1-0.8l14-16.6c1.1-1.3,2.2-3.6,2.5-5.3l4.1-23.5C61.1,26.7,60.9,26.2,60.6,26.2z M41.5,68.5l2.6-16.7c0.4,1.7,1.5,3.3,3.3,4.1c0.8,0.4,1.6,0.5,2.4,0.5s1.6-0.2,2.3-0.5L41.5,68.5z M53.4,52.1 c-0.6,1.3-1.9,2.1-3.2,2.2c-0.1,0-0.2,0-0.3,0c0,0,0,0,0,0c-0.2,0-0.4,0-0.7-0.1c0,0-0.1,0-0.1,0c-0.3-0.1-0.5-0.1-0.8-0.3 c-0.5-0.2-0.9-0.6-1.3-1c0,0,0,0,0,0c-0.2-0.2-0.3-0.4-0.4-0.6c0,0,0,0,0,0c-0.1-0.2-0.2-0.4-0.3-0.7c0,0,0,0,0,0l0,0 c-0.3-0.9-0.3-1.9,0.2-2.8c0.9-1.9,3.2-2.8,5.1-1.9C53.4,47.9,54.3,50.2,53.4,52.1z"/></svg>