<svg id="Слой_1" xmlns="http://www.w3.org/2000/svg" viewBox="0 0 100 125"><path d="M90.3,60.6c0.8-0.7,1-1.8,0.6-2.8l-2.2-5.2c-0.4-1-1.4-1.6-2.4-1.5L81,51.3l-1.6-1.6l0.3-5.4c0.1-1.1-0.6-2-1.5-2.4 L73,39.7c-1-0.4-2.1-0.2-2.8,0.6l-3.6,4h-2.2l-3.6-3.9c0.8-0.4,1.3-1.3,1.3-2.2v-5.7c0-1.1-0.7-2-1.7-2.4l-5.1-1.8l-0.9-2.1 l2.3-4.9c0.5-1,0.3-2.1-0.5-2.8l-4-4c-0.7-0.7-1.9-0.9-2.8-0.5l-4.9,2.3l-2.1-0.9l-1.8-5.1c-0.4-1-1.3-1.7-2.4-1.7h-5.7 c-1.1,0-2,0.7-2.4,1.7l-1.8,5.1l-2.1,0.9L21.3,14c-1-0.5-2.1-0.3-2.8,0.5l-4,4c-0.7,0.7-0.9,1.9-0.5,2.8l2.3,4.9l-0.9,2.1l-5.1,1.8 c-1,0.4-1.7,1.3-1.7,2.4v5.7c0,1.1,0.7,2,1.7,2.4l5.1,1.8l0.9,2.1L14,49.4c-0.5,1-0.3,2.1,0.5,2.8l4,4c0.7,0.7,1.9,0.9,2.8,0.5 l4.9-2.3l2.1,0.9l1.8,5.1c0.4,1,1.3,1.7,2.4,1.7h5.7c0.9,0,1.8-0.5,2.2-1.3l3.9,3.6v2.2l-4,3.6c-0.8,0.7-1,1.8-0.6,2.8l2.2,5.2 c0.4,1,1.4,1.6,2.4,1.5l5.4-0.3l1.6,1.6L51,86.3c-0.1,1.1,0.6,2,1.5,2.4l5.2,2.2c1,0.4,2.1,0.2,2.8-0.6l3.6-4h2.2l3.6,4 c0.5,0.5,1.2,0.8,1.9,0.8c0.3,0,0.6-0.1,1-0.2l5.2-2.2c1-0.4,1.6-1.4,1.5-2.4L79.4,81l1.6-1.6l5.4,0.3c1.1,0.1,2-0.6,2.4-1.5L91,73 c0.4-1,0.2-2.1-0.6-2.8l-4-3.6v-2.2L90.3,60.6z M43.6,49.3L39.5,51c-0.7,0.3-1.2,0.8-1.4,1.5L36.5,57h-2.1l-1.6-4.5 c-0.2-0.7-0.7-1.2-1.4-1.5l-4.1-1.7c-0.7-0.3-1.4-0.3-2,0.1l-4.3,2l-1.5-1.5l2-4.3c0.3-0.6,0.3-1.4,0.1-2l-1.7-4.1 c-0.3-0.7-0.8-1.2-1.5-1.4l-4.5-1.6v-2.1l4.5-1.6c0.7-0.2,1.2-0.7,1.5-1.4l1.7-4.1c0.3-0.7,0.3-1.4-0.1-2l-2-4.3l1.5-1.5l4.3,2 c0.6,0.3,1.4,0.3,2,0.1l4.1-1.7c0.7-0.3,1.2-0.8,1.4-1.5l1.6-4.5h2.1l1.6,4.5c0.2,0.7,0.7,1.2,1.4,1.5l4.1,1.7 c0.7,0.3,1.4,0.3,2-0.1l4.3-2l1.5,1.5l-2,4.3c-0.3,0.6-0.3,1.4-0.1,2l1.7,4.1c0.3,0.7,0.8,1.2,1.5,1.4l4.5,1.6v2.1l-4.5,1.6 c-0.7,0.2-1.2,0.7-1.5,1.4l-1.7,4.1c-0.3,0.7-0.3,1.4,0.1,2l1.9,4.1l0,0l-1.6,1.6l0,0l-4.1-1.9C45,49.1,44.2,49,43.6,49.3z M82.1,69.4l3.5,3.2l-0.8,2l-4.7-0.2c-0.7,0-1.4,0.2-1.9,0.7l-3.1,3.1c-0.5,0.5-0.8,1.2-0.7,1.9l0.2,4.7l-2,0.8l-3.2-3.5 c-0.5-0.5-1.1-0.8-1.9-0.8H63c-0.7,0-1.4,0.3-1.9,0.8l-3.2,3.5l-2-0.8l0.2-4.7c0-0.7-0.2-1.4-0.7-1.9l-3.1-3.1 c-0.5-0.5-1.2-0.8-1.9-0.7l-4.7,0.2l-0.8-2l3.5-3.2c0.5-0.5,0.8-1.1,0.8-1.9V63c0-0.7-0.3-1.4-0.8-1.9l-3.4-3l0.8-2l4.7,0.2 c0.7,0,1.4-0.2,1.9-0.7l3.1-3.1c0.5-0.5,0.8-1.2,0.7-1.9L56,45.9l2-0.8l3.2,3.5c0.5,0.5,1.1,0.8,1.9,0.8h4.5c0.7,0,1.4-0.3,1.9-0.8 l3.2-3.5l2,0.8l-0.2,4.7c0,0.7,0.2,1.4,0.7,1.9l3.1,3.1c0.5,0.5,1.2,0.8,1.9,0.7l4.7-0.2l0.8,2l-3.5,3.2c-0.5,0.5-0.8,1.1-0.8,1.9 v4.5C81.3,68.3,81.6,68.9,82.1,69.4z"/><path d="M35.7,27c-4.8,0-8.8,3.9-8.8,8.8s3.9,8.8,8.8,8.8s8.8-3.9,8.8-8.8S40.5,27,35.7,27z M35.7,42c-3.4,0-6.3-2.8-6.3-6.3 s2.8-6.3,6.3-6.3s6.3,2.8,6.3,6.3S39.2,42,35.7,42z"/><path d="M65.6,57.1c-4.8,0-8.8,3.9-8.8,8.8s3.9,8.8,8.8,8.8s8.8-3.9,8.8-8.8S70.4,57.1,65.6,57.1z M65.6,72.1 c-3.4,0-6.3-2.8-6.3-6.3s2.8-6.3,6.3-6.3s6.3,2.8,6.3,6.3S69,72.1,65.6,72.1z"/></svg>