<svg fill="#FFF" id="Слой_1" xmlns="http://www.w3.org/2000/svg" viewBox="0 0 48 60"><path d="M9,1030.4c-5,0-9,4-9,9s4,9,9,9s9-4,9-9S14,1030.4,9,1030.4z M9,1032.4c3.9,0,7,3.1,7,7c0,3.9-3.1,7-7,7s-7-3.1-7-7 C2,1035.5,5.1,1032.4,9,1032.4z" transform="translate(0 -1004.362)"/><path d="M42,1036.4c-3.3,0-6,2.7-6,6c0,3.3,2.7,6,6,6s6-2.7,6-6C48,1039.1,45.3,1036.4,42,1036.4z M42,1038.4c2.2,0,4,1.8,4,4 s-1.8,4-4,4s-4-1.8-4-4S39.8,1038.4,42,1038.4z" transform="translate(0 -1004.362)"/><path d="M4,1027.4c-0.3,0-0.5,0.1-0.7,0.3l-3,3c-0.4,0.4-0.4,1,0,1.4s1,0.4,1.4,0c0,0,0,0,0,0l2.7-2.7h10.9l5.7,12.4 c0.2,0.4,0.5,0.6,0.9,0.6h11c0.4,0,0.7-0.2,0.9-0.5l3.7-6.5h7l1.7,1.7c0.4,0.4,1,0.4,1.4,0c0.4-0.4,0.4-1,0-1.4c0,0,0,0,0,0l-2-2 c-0.2-0.2-0.4-0.3-0.7-0.3h-8c-0.4,0-0.7,0.2-0.9,0.5l-3.7,6.5h-9.8l-5.7-12.4c-0.2-0.4-0.5-0.6-0.9-0.6 C16,1027.4,4,1027.4,4,1027.4z" transform="translate(0 -1004.362)"/><path d="M26,1025.4c-0.6,0-1,0.4-1,1v5h-7c-0.6,0-1,0.4-1,1c0,0.6,0.4,1,1,1c0,0,0,0,0,0h8c0.6,0,1-0.4,1-1v-5h15v6 c0,0.6,0.4,1,1,1c0.6,0,1-0.4,1-1c0,0,0,0,0,0v-7c0-0.6-0.4-1-1-1C43,1025.4,26,1025.4,26,1025.4z" transform="translate(0 -1004.362)"/><path d="M6,1008.4c-0.5,0-0.9,0.4-1,0.9l-2,19c-0.1,0.5,0.3,1.1,0.9,1.1c0.5,0.1,1.1-0.3,1.1-0.9c0,0,0,0,0-0.1l1.9-18.1h13.3 l4.8,16.3c0.1,0.5,0.7,0.9,1.2,0.7c0.5-0.1,0.9-0.7,0.7-1.2c0,0,0,0,0-0.1l-5-17c-0.1-0.4-0.5-0.7-1-0.7L6,1008.4L6,1008.4z" transform="translate(0 -1004.362)"/><path d="M35,1009.4c-0.6,0-1,0.4-1,1c0,0.6,0.4,1,1,1c0,0,0,0,0,0h2v14c0,0.6,0.4,1,1,1c0.6,0,1-0.4,1-1c0,0,0,0,0,0v-15 c0-0.6-0.4-1-1-1L35,1009.4L35,1009.4z" transform="translate(0 -1004.362)"/><path d="M16,1009.4c-0.6,0-1,0.5-1,1c0,0,0,0,0,0v18c0,0.6,0.4,1,1,1c0.6,0,1-0.4,1-1c0,0,0,0,0,0v-18 C17,1009.8,16.6,1009.4,16,1009.4C16,1009.4,16,1009.4,16,1009.4L16,1009.4z" transform="translate(0 -1004.362)"/><path d="M38,1029.4c-0.6,0-1,0.4-1,1c0,0.6,0.4,1,1,1c0,0,0,0,0,0h5c0.6,0,1-0.4,1-1c0-0.6-0.4-1-1-1c0,0,0,0,0,0H38z" transform="translate(0 -1004.362)"/></svg>