<svg id="Слой_1" xmlns="http://www.w3.org/2000/svg" viewBox="0 0 88 80.9"><path d="M69.5,29.5C69.5,29.5,69.5,29.5,69.5,29.5L69.5,29.5l0-16.9c0-1.1-0.9-1.9-1.9-1.9h-0.2c0,0,0,0-0.1,0H47.6c0,0,0,0-0.1,0	h-0.2c0,0,0,0-0.1,0c-1,0-1.9,0.9-1.9,1.9v13.4H28.3c-0.5,0-0.9,0.2-1.2,0.4c-0.4,0.4-0.7,0.9-0.7,1.5v9.2l-2,0.4	c-0.2,0-0.4,0.1-0.6,0.1l-7.8,1.4c0,0,0,0,0,0l-0.8,0.2l1.5-8.6c0.2-1-0.5-2-1.6-2.2l-0.2,0c-1-0.2-2,0.5-2.2,1.6L8.9,51.2	c-0.2,1,0.5,2,1.6,2.2l0.2,0c1,0.2,2-0.5,2.2-1.6l1.5-8.5l3.6-0.7c-0.3,0.8-0.5,1.8-0.5,2.7c0,4.4,3.6,8,8,8c0.1,0,0.2,0,0.3,0h43.4	c0.1,0,0.3,0,0.4,0c6.6,0,12-5.4,12-12C81.5,34.9,76.2,29.5,69.5,29.5z M52.6,36.5l6.6-1.2c-1.1,1.8-1.7,3.9-1.7,6.2	c0,3.1,1.2,5.9,3.1,8H32.4c0.7-1.2,1.1-2.6,1.1-4c0-2-0.7-3.8-1.9-5.2L52.6,36.5z M49.4,14.7h16.1v15.4l-8.4,1.5c0,0,0,0,0,0	l-5.9,1.1L49.4,33V14.7L49.4,14.7z M30.3,30.1h15.1v3.7l-15.1,2.8C30.3,36.5,30.3,30.1,30.3,30.1z M21.4,45.5c0-1.9,1.3-3.4,3-3.9	l0.1,0c0,0,0,0,0,0l0.5-0.1c0.1,0,0.3,0,0.4,0c2.2,0,4,1.8,4,4c0,2.1-1.7,3.9-3.8,4h-0.2c0,0-0.1,0-0.1,0	C23.2,49.5,21.4,47.7,21.4,45.5z M69.4,49.5c-4.4,0-8-3.6-8-8c0-3.4,2.2-6.4,5.2-7.5l1.4-0.2c0.2,0,0.4-0.1,0.6-0.2l0.2,0	c0.2,0,0.5,0,0.7,0c4.4,0,8,3.6,8,8C77.4,45.9,73.8,49.5,69.4,49.5z"/></svg>