<svg id="Слой_1" xmlns="http://www.w3.org/2000/svg" viewBox="0 0 100 125"><path d="M47.7,957.3c-1.7,0.1-2.9,1.5-2.8,3.2s1.5,2.9,3.2,2.8c22.7,0,41,18.3,41,41c0,1.7,1.3,3,3,3s3-1.3,3-3c0,0,0-0.1,0-0.1 c0-25.9-21.1-47-47-47C47.9,957.3,47.8,957.3,47.7,957.3z M24.2,969.4c-1,0-1.9,0.2-2.8,0.4c-2.3,0.7-4.3,2-5.9,3.6 c-7.2,7.2-11.3,14.1-10.3,21.8s6.6,15.4,16.7,25.5l9.9,9.9c10,10,17.7,15.7,25.4,16.7c7.8,1,14.7-3.1,21.9-10.3 c1.6-1.6,2.9-3.6,3.6-5.9s0.7-5.3-1.4-7.5c-3.7-3.7-10.6-8.5-14.3-10.4c-2.8-1.4-5.7-0.3-7.5,1c-1.8,1.3-3.2,2.8-4.1,3.6 c-1.3,1.3-2.3,2.4-3.1,3c-0.7,0.6-1,0.6-1.1,0.7c-0.1,0-0.7,0-1.9-0.9c-1.2-0.8-3-2.4-5.4-4.8c0,0,0,0,0,0l-7.1-7.1 c-2.4-2.4-3.9-4.2-4.8-5.4s-0.9-1.8-0.9-1.9c0-0.1,0-0.4,0.7-1.1c0.6-0.7,1.7-1.7,3-3.1c0.8-0.9,2.4-2.2,3.6-4.1s2.4-4.7,1-7.5 c-1.9-3.7-6.7-10.6-10.4-14.3c-1.1-1.1-2.4-1.6-3.7-1.8C24.9,969.4,24.5,969.4,24.2,969.4z M47.7,969.4c-1.7,0.1-2.9,1.5-2.8,3.2 s1.5,2.9,3.2,2.8c16.1,0,29,12.9,29,29c0,1.7,1.3,3,3,3s3-1.3,3-3c0,0,0-0.1,0-0.1c0-19.3-15.7-35-35-35 C47.9,969.4,47.8,969.4,47.7,969.4z M24.3,975.3c0.2,0,0.3,0.1,0.4,0.1c2.7,2.7,8.1,10.4,9.3,12.7c0.1,0.2,0.1,0.4-0.6,1.4 s-2,2.2-3,3.3c-1.1,1.2-2.2,2.2-3.2,3.3s-2,2.7-2.1,4.7c-0.1,1.9,0.7,3.8,1.9,5.6c1.2,1.8,2.9,3.7,5.3,6.1c0.1,0.1,0.1,0.1,0.2,0.2 v0l7.1,7.1c0.1,0.1,0.2,0.2,0.3,0.2c2.4,2.4,4.4,4.1,6.1,5.3c1.8,1.2,3.7,2,5.6,1.9c1.9-0.1,3.5-1.1,4.7-2.1s2.2-2.1,3.3-3.2 c1.1-1.1,2.3-2.3,3.3-3c1-0.7,1.2-0.7,1.4-0.6c2.3,1.1,10,6.6,12.7,9.3c0.1,0.1,0.2,0.4-0.1,1.5c-0.3,1.1-1.2,2.6-2,3.4 c-6.7,6.7-11.5,9.3-16.8,8.6s-12.2-5.2-22-15l-9.9-9.9c-9.7-9.7-14.3-16.7-15-22s1.9-10.1,8.6-16.8c0.8-0.8,2.3-1.7,3.4-2.1 C23.7,975.4,24,975.3,24.3,975.3z" transform="translate(0 -952.362)"/></svg>