<svg id="Слой_1" xmlns="http://www.w3.org/2000/svg" viewBox="0 0 100 125"><path d="M45,26.5v0.2v4v5h5h11.9l0.7,3.5l0.8,4h4.1h4.3v2.4v5h5h2.3h5v-5v-1.8h4.5c0.9,4.2,1.5,10,1.5,14s-0.6,9.8-1.4,14h-4.5v-1.4 v-5h-5h-3.5h-5v5v3.1H39.6l-6.4-6.4l-1.5-1.5h-2.1H18.5V53.1v-5v-0.2v-6.3h2.2h2.1l1.5-1.5l3.9-3.9l0.3-0.3l0.1-0.2h9h5v-5v-4v-0.2 L45,26.5 M57.9,21.5H29.5v5.2h8.2v4h-9.2c-1.6,0-2.9,0.8-3.8,1.9l-3.9,3.9h-2.6c-2.6,0-4.6,2.1-4.6,4.6v6.7h-2.5V33.6L5,37.1v12.3 l2,2v12.3l4.1,2.4v-13h2.5V66c0,2.6,2.1,4.6,4.6,4.6h11.5l6.5,6.5c0.1,0.1,0.3,0.3,0.4,0.4l0,0l0,0c0.8,0.6,1.8,1,2.9,1h31.4 c2.6,0,4.6-2.1,4.6-4.6v-3.5H79v6.4h13.3c1.7-4.9,2.6-14,2.6-19s-0.9-14.1-2.6-19H79.1v6.8h-2.3v-2.8c0-2.6-2.1-4.6-4.6-4.6h-4.6 l-0.8-3.8c-0.5-2.2-2.3-3.7-4.5-3.7H50v-4h7.9V21.5L57.9,21.5z"/></svg>