<svg id="Слой_1" xmlns="http://www.w3.org/2000/svg" viewBox="0 0 100 125"><path d="M76.8,20.7c-1.7-1.7-4.4-1.7-6.1,0c-1.7,1.7-1.7,4.4,0,6.1l5.9,5.9c-3.6,1.1-6.2,4.5-6.2,8.5c0,4.9,4,8.8,8.8,8.8 c1.5,0,3-0.4,4.2-1.1V83c0,4.1-3.3,7.4-7.4,7.4s-7.4-3.3-7.4-7.4h0V59.7c0-6.6-5.4-12-12-12H54V17c0-6.6-5.5-12-12-12H17 c-6.6,0-12,5.5-12,12v78h49V52.3h2.6c4.1,0,7.4,3.3,7.4,7.4V83h0c0,6.6,5.4,12,12,12s12-5.4,12-12V31.9L76.8,20.7z M48,89H11V17.1v0 c0-3.1,2.9-6,6-6h25h0c3.1,0,6,2.9,6,6V89z M79.2,45.1c-2.2,0-4-1.8-4-4c0-2.2,1.8-4,4-4s4,1.8,4,4C83.2,43.4,81.4,45.1,79.2,45.1z"/><path d="M23.5,58.6C27,62,32.6,62,36,58.6c3.5-3.5,3.5-9.1,0-12.5l-6.3-7.2l-6.2,7.2c0,0,0,0,0,0C20,49.5,20,55.1,23.5,58.6z"/></svg>