<svg fill="#FFF" id="Слой_1" xmlns="http://www.w3.org/2000/svg" viewBox="0 0 512 640"><path d="M320,0c-5.9,0-10.7,4.8-10.7,10.7v56.5L288,77.8V32c0-5.9-4.8-10.7-10.7-10.7s-10.7,4.8-10.7,10.7v56.5l-2.3,1.1 c-3.1,1.6-6,3.9-8.7,6.7c-2.5-2.6-5.3-4.7-8.2-6.2l-2.3-1.1V32c0-5.9-4.8-10.7-10.7-10.7S224,26.1,224,32v46.3l-21.3-10.7v-57 C202.7,4.8,197.9,0,192,0s-10.7,4.8-10.7,10.7v67.7v7v225c0,11.7,8.6,25.6,19.1,30.9l44.9,22.5V512h21.3V363.1l44.9-22.5 c10.5-5.3,19.1-19.1,19.1-30.9V95V77.8V10.7C330.7,4.8,325.9,0,320,0z M245.3,121v50.8l-35.4-17.7c-3.3-1.6-7.3-8.1-7.3-11.8V91.5 l35.4,17.7C241.3,110.8,245.3,117.3,245.3,121z M245.3,195.7v58.8l-35.4-17.7c-3.3-1.6-7.3-8.1-7.3-11.8v-50.6L245.3,195.7z M202.7,310.3V257l42.7,21.3v61.5l-35.4-17.7C206.7,320.5,202.7,314,202.7,310.3z M309.3,309.8c0,3.7-4,10.2-7.3,11.8l-35.4,17.7 v-61.5l42.7-21.3V309.8z M309.3,224.5c0,3.7-4,10.2-7.3,11.8l-35.4,17.7v-58.8l42.7-21.3V224.5z M309.3,141.8 c0,3.7-4,10.2-7.3,11.8l-35.4,17.7v-50.8c0-3.7,4-10.2,7.3-11.8L309.3,91v4V141.8z"/><path d="M448,128c-5.9,0-10.7,4.8-10.7,10.7v24.4l-21.3,7.1V160c0-5.9-4.8-10.7-10.7-10.7s-10.7,4.8-10.7,10.7v10.2l-21.3-7.1V139 c0-5.9-4.8-10.7-10.7-10.7S352,133.2,352,139v38.3v2.1v167.2c0,11.7,9.1,24.4,20.3,28.1l22.4,7.5V512H416V382.2l22.4-7.5 c11.1-3.7,20.2-16.3,20.2-28.1V179.1v-1.8v-38.7C458.7,132.8,453.9,128,448,128z M394.7,198.7v1.8v32.6l-15.7-5.2 c-2.4-0.8-5.6-5.3-5.6-7.8v-34.4l15.7,5.2C391.4,191.6,394.7,196.2,394.7,198.7z M394.7,295.7l-15.7-5.2c-2.4-0.8-5.6-5.3-5.6-7.8 v-34.2l21.3,7.1L394.7,295.7L394.7,295.7z M379,354.5c-2.4-0.8-5.6-5.3-5.6-7.8v-35.6l21.3,7.1v32.1v9.4L379,354.5z M437.3,346.7 c0,2.5-3.3,7-5.7,7.8l-15.7,5.2v-9.4v-32.1l21.3-7.1V346.7z M437.3,282.7c0,2.5-3.3,7-5.7,7.8l-15.7,5.2v-40.2l21.3-7.1V282.7z M437.3,220c0,2.5-3.3,7-5.7,7.8l-15.7,5.2v-32.6v-1.8c0-2.5,3.3-7,5.7-7.8l15.7-5.2V220z"/><path d="M149.3,128c-5.9,0-10.7,4.8-10.7,10.7v24.4l-21.3,7.1V160c0-5.9-4.8-10.7-10.7-10.7S96,154.1,96,160v10.2l-21.3-7.1V139 c0-5.9-4.8-10.7-10.7-10.7s-10.7,4.8-10.7,10.7v38.3v2.1v167.2c0,11.7,9.1,24.4,20.2,28.1l22.4,7.5V512h21.3V382.2l22.4-7.5 c11.1-3.7,20.2-16.3,20.2-28.1V179.1v-1.8v-38.7C160,132.8,155.2,128,149.3,128z M96,198.7v1.8v32.6l-15.7-5.2 c-2.4-0.8-5.7-5.3-5.7-7.8v-34.4l15.7,5.2C92.7,191.6,96,196.2,96,198.7z M96,295.7l-15.7-5.2c-2.4-0.8-5.7-5.3-5.7-7.8v-34.2 l21.3,7.1C96,255.6,96,295.7,96,295.7z M80.3,354.5c-2.4-0.8-5.7-5.3-5.7-7.8v-35.6l21.3,7.1v32.1v9.4L80.3,354.5z M138.7,346.7 c0,2.5-3.3,7-5.7,7.8l-15.7,5.2v-9.4v-32.1l21.3-7.1V346.7z M138.7,282.7c0,2.5-3.3,7-5.7,7.8l-15.7,5.2v-40.2l21.3-7.1V282.7z M138.7,220c0,2.5-3.3,7-5.7,7.8l-15.7,5.2v-32.6v-1.8c0-2.5,3.3-7,5.6-7.8l15.7-5.2L138.7,220L138.7,220z"/></svg>