<svg width="101" height="81" viewBox="0 0 101 81" xmlns="http://www.w3.org/2000/svg"><title>обратная связь</title><g id="Page-1" fill="none" fill-rule="evenodd"><g id="обратная-связь" fill="#d42c2f"><g id="Group"><path d="M3.97146349,0 C2.31494331,0 0.97206841,1.33787142 0.972068453,3.00222833 L0.972070141,67.9220881 C0.972070184,69.580173 2.31366578,70.9243164 3.96882602,70.9243164 L16.7075196,70.9243164 L29.337092,80.4900189 C30.215085,81.1550152 31.624361,81.1452197 32.4968325,80.45867 L44.6131474,70.9243164 L97.7410476,70.9243164 C99.3966395,70.9243164 100.738762,69.586445 100.738762,67.9220881 L100.73876,3.00222833 C100.73876,1.34414341 99.4038692,0 97.7393649,0 L3.97146349,0 L3.97146349,0 Z M8.00596461,5 C6.89810095,5 6,5.88718193 6,6.9979447 L6,64.095205 C6,65.1986394 6.89550276,66.0931497 7.99736893,66.0931497 L18.1783447,66.0931497 L29.2663926,75.3848028 C30.114284,76.0953258 31.4969572,76.1100588 32.356397,75.4163238 L43.9064941,66.0931497 L94.005667,66.0931497 C95.1071067,66.0931497 96,65.2059677 96,64.095205 L96,6.9979447 C96,5.89451031 95.1092384,5 93.9940354,5 L8.00596461,5 L8.00596461,5 Z M22.3773963,18.1672522 C21.8259374,18.1672522 21.3788917,18.6193432 21.3788917,19.1752277 L21.3788917,21.7010897 C21.3788917,22.2577792 21.8195246,22.7090653 22.3773963,22.7090653 L79.3334321,22.7090653 C79.884891,22.7090653 80.3319368,22.2569743 80.3319368,21.7010897 L80.3319368,19.1752277 C80.3319368,18.6185382 79.8913038,18.1672522 79.3334321,18.1672522 L22.3773963,18.1672522 L22.3773963,18.1672522 Z M22.3773963,31.7926914 C21.8259374,31.7926914 21.3788917,32.2447823 21.3788917,32.8006669 L21.3788917,35.3265289 C21.3788917,35.8832184 21.8195246,36.3345044 22.3773963,36.3345044 L79.3334321,36.3345044 C79.884891,36.3345044 80.3319368,35.8824134 80.3319368,35.3265289 L80.3319368,32.8006669 C80.3319368,32.2439774 79.8913038,31.7926914 79.3334321,31.7926914 L22.3773963,31.7926914 L22.3773963,31.7926914 Z M22.3810361,45.4181305 C21.827567,45.4181305 21.3788917,45.8702215 21.3788917,46.426106 L21.3788917,48.951968 C21.3788917,49.5086575 21.8338577,49.9599436 22.3810361,49.9599436 L63.4857502,49.9599436 C64.0392193,49.9599436 64.4878947,49.5078526 64.4878947,48.951968 L64.4878947,46.426106 C64.4878947,45.8694165 64.0329287,45.4181305 63.4857502,45.4181305 L22.3810361,45.4181305 L22.3810361,45.4181305 Z" id="Shape"/></g></g></g></svg>